HIERARCHY
ROOT ui
{
	 OFFSET 0 0 0
	 CHANNELS 3 XPosition YPosition Z Position
	 EndSite
	 {
	 OFFSET 0 -1 0
	 }
}
ROOT li
{
	 OFFSET 0 0 0
	 CHANNELS 3 XPosition YPosition Z Position
	 EndSite
	 {
	 OFFSET 0 -1 0
	 }
}
ROOT ul
{
	 OFFSET 0 0 0
	 CHANNELS 3 XPosition YPosition Z Position
	 EndSite
	 {
	 OFFSET 0 -1 0
	 }
}
ROOT ll
{
	 OFFSET 0 0 0
	 CHANNELS 3 XPosition YPosition Z Position
	 EndSite
	 {
	 OFFSET 0 -1 0
	 }
}
ROOT tt
{
	 OFFSET 0 0 0
	 CHANNELS 3 XPosition YPosition Z Position
	 EndSite
	 {
	 OFFSET 0 -1 0
	 }
}
ROOT tb
{
	 OFFSET 0 0 0
	 CHANNELS 3 XPosition YPosition Z Position
	 EndSite
	 {
	 OFFSET 0 -1 0
	 }
}
ROOT td
{
	 OFFSET 0 0 0
	 CHANNELS 3 XPosition YPosition Z Position
	 EndSite
	 {
	 OFFSET 0 -1 0
	 }
}
ROOT v
{
	 OFFSET 0 0 0
	 CHANNELS 3 XPosition YPosition Z Position
	 EndSite
	 {
	 OFFSET 0 -1 0
	 }
}
ROOT bn
{
	 OFFSET 0 0 0
	 CHANNELS 3 XPosition YPosition Z Position
	 EndSite
	 {
	 OFFSET 0 -1 0
	 }
}
MOTION
Frames: 10
Frame Time: 0.002
0.017344369888305664	-0.007562602996826172	0		0.5654733276367188	-2.6268798828125	0		-0.9989488525390625	0.053602302551269534	0		-0.21386868286132812	-3.18883544921875	0		1.565221435546875	-1.2627109375	0		2.62325830078125	-0.10831450653076172	0		3.9528720703125	0.6255300903320312	0		5.9569208984375	0.4998302917480469	0		-0.37102163696289064	5.8359560546875	0		
0.008155328750610352	-0.0051821708679199215	0		0.5802518920898437	-2.620828369140625	0		-0.925181884765625	0.05193756484985351	0		-0.19035516357421875	-3.201874755859375	0		1.5598758544921876	-1.2694302978515626	0		2.61397509765625	-0.11301537322998047	0		3.952091796875	0.6576805419921875	0		5.95902783203125	0.5223807373046875	0		-0.37204071044921877	5.8372451171875	0		
-0.004946586132049561	0.0011981819868087768	0		0.5629109497070313	-2.628407470703125	0		-0.9953037109375	0.05707966232299805	0		-0.22764213562011718	-3.20417724609375	0		1.5704451904296874	-1.2863941650390625	0		2.5798076171875	-0.11141866302490235	0		3.9330048828125	0.6640524291992187	0		5.97509033203125	0.4822149658203125	0		-0.370119873046875	5.835439453125	0		
0.012767075538635254	-0.009877731323242187	0		0.564763916015625	-2.626282958984375	0		-0.9833026123046875	0.06809171295166015	0		-0.1741517333984375	-3.2297177734375	0		1.5733270263671875	-1.283294677734375	0		2.626673583984375	-0.11090364837646484	0		3.941026611328125	0.6760579833984375	0		5.97742578125	0.5376508178710937	0		-0.36921844482421873	5.83358837890625	0		
0.019745323181152345	-0.003868025064468384	0		0.5697510375976562	-2.619248291015625	0		-0.991205810546875	0.08329753875732422	0		-0.2180703582763672	-3.215044677734375	0		1.5732255859375	-1.2831959228515626	0		2.591642333984375	-0.10535152435302735	0		3.952083740234375	0.6880086669921875	0		5.9751044921875	0.5171181640625	0		-0.3702819213867187	5.835703125	0		
8.471850156784058E-4	0.008423314094543458	0		0.5895853881835937	-2.629457763671875	0		-0.9953140258789063	0.07938664245605469	0		-0.19327044677734376	-3.22832568359375	0		1.5660640869140625	-1.2920458984375	0		2.587522705078125	-0.11023226928710937	0		3.948100341796875	0.694138427734375	0		5.97506396484375	0.517283935546875	0		-0.5046485900878906	5.81648974609375	0		
-0.015438336372375489	-0.012377982139587402	0		0.5626347045898438	-2.628107177734375	0		-1.0012639770507812	0.08443508911132812	0		-0.1854210205078125	-3.243442626953125	0		1.569930419921875	-1.3030792236328126	0		2.583458984375	-0.1141436767578125	0		3.9431650390625	0.7012638549804687	0		5.968783203125	0.5453359375	0		-0.3705071716308594	5.8357275390625	0		
0.004638069152832032	-0.008703977584838866	0		0.5886932373046875	-2.631494140625	0		-0.99718896484375	0.08828881072998047	0		-0.21827543640136718	-3.24108642578125	0		1.576901611328125	-1.31019140625	0		2.5974091796875	-0.12031816101074219	0		3.9403271484375	0.7133463745117188	0		5.97244921875	0.5609715576171875	0		-0.3706449890136719	5.83565087890625	0		
-0.031164415359497072	0.0016415619850158691	0		0.5389651489257813	-2.622945556640625	0		-0.9971273193359375	0.08813210296630859	0		-0.2072311248779297	-3.252354736328125	0		1.57193896484375	-1.3161856689453124	0		2.58945361328125	-0.12223551940917969	0		3.951519287109375	0.7252330322265625	0		5.979625	0.560937255859375	0		-0.3566724243164062	5.8453359375	0		
0.04183147811889648	-0.007467710018157959	0		0.5921377563476562	-2.627770751953125	0		-0.998910400390625	0.0969416732788086	0		-0.23790608215332032	-3.24713427734375	0		1.5771827392578126	-1.3103450927734375	0		2.5954736328125	-0.1293588409423828	0		3.9404365234375	0.7133931274414063	0		5.96995166015625	0.606427001953125	0		-0.3709700927734375	5.83533203125	0		
